<svg xmlns="http://www.w3.org/2000/svg" width="4096" height="4096" viewBox="0 0 4096 4096">
  <defs>
    <style>
      .cls-1 {
        fill: #fff;
        fill-rule: evenodd;
      }
    </style>
  </defs>
  <path id="Polygon_1" data-name="Polygon 1" class="cls-1" d="M2087.33,764.522a324,324,0,0,1,374.67-68.5l815.77,391.531a323.989,323.989,0,0,1,180.93,335.16l-120.28,896.83a324.014,324.014,0,0,1-262.85,275.65l-890.1,162.74a324.014,324.014,0,0,1-343.39-164.81l-429.83-796.24a324,324,0,0,1,50.63-377.51Z"/>
  <path id="Polygon_2" data-name="Polygon 2" class="cls-1" d="M1312.49,2363.39c104.26,22.16,170.81,124.65,148.65,228.91l-81.79,384.77c-22.16,104.26-124.64,170.82-228.9,148.66l-384.778-81.79c-104.261-22.16-170.817-124.65-148.655-228.91L698.8,2430.26C720.964,2326,823.451,2259.44,927.712,2281.6Z"/>
  <path id="Polygon_3" data-name="Polygon 3" class="cls-1" d="M1630.54,3030.72c10.82-76.99,100.93-113.4,162.2-65.53l258.18,201.72c61.27,47.86,47.74,144.11-24.35,173.23l-303.78,122.74c-72.09,29.12-148.67-30.71-137.85-107.71Z"/>
</svg>
